<svg xmlns="http://www.w3.org/2000/svg" width="512" height="512" viewBox="0 0 512 512">
  <defs>
    <clipPath id="tile"><rect width="512" height="512" rx="112.64"/></clipPath>
    <pattern id="hazard" width="12" height="12" patternUnits="userSpaceOnUse" patternTransform="rotate(135)">
      <rect width="5" height="12" fill="#f3f7f1" opacity="0.1"/>
    </pattern>
    <radialGradient id="floodlight" gradientUnits="userSpaceOnUse" cx="256" cy="-30" r="400">
      <stop offset="0" stop-color="#fff" stop-opacity="0.2"/>
      <stop offset="0.55" stop-color="#fff" stop-opacity="0.05"/>
      <stop offset="1" stop-color="#fff" stop-opacity="0"/>
    </radialGradient>
    <radialGradient id="vignette" gradientUnits="userSpaceOnUse" cx="256" cy="256" r="330">
      <stop offset="0.6" stop-color="#000" stop-opacity="0"/>
      <stop offset="1" stop-color="#000" stop-opacity="0.34"/>
    </radialGradient>
    <linearGradient id="leather" x1="0.2" y1="0" x2="0.8" y2="1">
      <stop offset="0" stop-color="#fff0a8"/>
      <stop offset="0.45" stop-color="#ffe066"/>
      <stop offset="1" stop-color="#e3c24c"/>
    </linearGradient>
    <radialGradient id="sheen" cx="0.36" cy="0.28" r="0.5">
      <stop offset="0" stop-color="#fff" stop-opacity="0.38"/>
      <stop offset="1" stop-color="#fff" stop-opacity="0"/>
    </radialGradient>
    <filter id="shadow" x="-20%" y="-100%" width="140%" height="300%">
      <feGaussianBlur stdDeviation="10"/>
    </filter>
  </defs>
  <rect width="512" height="512" rx="112.64" fill="#0f4d2c"/>
  <g clip-path="url(#tile)">
    <rect x="64" y="0" width="64" height="512" fill="#0d4527"/>
    <rect x="192" y="0" width="64" height="512" fill="#0d4527"/>
    <rect x="320" y="0" width="64" height="512" fill="#0d4527"/>
    <rect x="0" y="0" width="64" height="512" fill="#0a3a20"/>
    <rect x="0" y="0" width="64" height="512" fill="url(#hazard)"/>
    <rect x="448" y="0" width="64" height="512" fill="#0a3a20"/>
    <rect x="448" y="0" width="64" height="512" fill="url(#hazard)"/>
    <rect x="62" y="0" width="4" height="512" fill="#f3f7f1" opacity="0.7"/>
    <rect x="126.5" y="0" width="3" height="512" fill="#f3f7f1" opacity="0.4"/>
    <rect x="190.5" y="0" width="3" height="512" fill="#f3f7f1" opacity="0.4"/>
    <rect x="254.5" y="0" width="3" height="512" fill="#f3f7f1" opacity="0.4"/>
    <rect x="318.5" y="0" width="3" height="512" fill="#f3f7f1" opacity="0.4"/>
    <rect x="382.5" y="0" width="3" height="512" fill="#f3f7f1" opacity="0.4"/>
    <rect x="446" y="0" width="4" height="512" fill="#f3f7f1" opacity="0.7"/>
    <path d="M64 170.667H448" stroke="#f3f7f1" stroke-width="3" stroke-dasharray="11 9" opacity="0.3"/>
    <path d="M64 341.333H448" stroke="#f3f7f1" stroke-width="3" stroke-dasharray="11 9" opacity="0.3"/>
    <rect width="512" height="512" fill="url(#floodlight)"/>
    <rect width="512" height="512" fill="url(#vignette)"/>
    <ellipse cx="262" cy="318.691" rx="142.642" ry="21.865" fill="#000" opacity="0.5" filter="url(#shadow)"/>
    <g transform="translate(256 262) rotate(-18) scale(9.939) translate(-17 -10.5)" stroke-linecap="round">
      <ellipse cx="17" cy="10.5" rx="15.6" ry="9.2" fill="url(#leather)" stroke="#0a3a20" stroke-width="0.9"/>
      <ellipse cx="17" cy="10.5" rx="15.6" ry="9.2" fill="url(#sheen)"/>
      <path d="M7 5.1v10.8M27 5.1v10.8" fill="none" stroke="#0a3a20" stroke-width="1.4" opacity="0.9"/>
      <path d="M9.5 10.5h15" fill="none" stroke="#0a3a20" stroke-width="1.6"/>
      <path d="M12 8.6v3.8M14.5 8.6v3.8M17 8.6v3.8M19.5 8.6v3.8M22 8.6v3.8" fill="none" stroke="#0a3a20" stroke-width="1.6"/>
    </g>
  </g>
  <rect x="1.5" y="1.5" width="509" height="509" rx="111.14" fill="none" stroke="#fff" stroke-width="3" opacity="0.08"/>
</svg>
